<?xml version="1.0" standalone="no"?>
<!DOCTYPE svg PUBLIC "-//W3C//DTD SVG 20010904//EN"
 "http://www.w3.org/TR/2001/REC-SVG-20010904/DTD/svg10.dtd">
<svg version="1.0" xmlns="http://www.w3.org/2000/svg"
 width="1080.000000pt" height="1080.000000pt" viewBox="0 0 1080.000000 1080.000000"
 preserveAspectRatio="xMidYMid meet">

<g transform="translate(0.000000,1080.000000) scale(0.100000,-0.100000)" stroke="none">
<path d="M5160 10790 c-90 -10 -319 -48 -340 -56 -8 -4 -62 -19 -120 -35 -126
-33 -216 -65 -330 -114 -90 -39 -292 -143 -300 -156 -3 -4 -24 -15 -48 -24
-23 -10 -42 -20 -42 -24 0 -4 -22 -18 -50 -31 -27 -13 -50 -26 -50 -30 0 -3
-15 -14 -32 -25 -18 -10 -35 -21 -38 -25 -3 -3 -23 -17 -45 -30 -22 -13 -42
-27 -45 -31 -3 -4 -30 -25 -60 -47 -78 -58 -143 -111 -259 -210 -59 -51 -328
-321 -376 -379 -16 -19 -42 -49 -58 -66 -15 -16 -27 -33 -27 -37 0 -4 -10 -18
-22 -32 -36 -39 -98 -121 -98 -129 0 -4 -37 -10 -82 -13 -334 -21 -357 -26
-404 -78 -12 -12 -31 -42 -43 -66 -20 -39 -22 -55 -18 -170 5 -131 19 -239 37
-272 28 -52 81 -90 127 -90 54 0 56 -6 39 -122 -29 -195 -13 -626 25 -700 5
-10 20 -68 34 -130 22 -105 59 -243 84 -313 6 -16 19 -57 30 -90 10 -33 33
-98 50 -145 18 -47 42 -114 55 -150 52 -142 185 -413 307 -627 34 -60 74 -128
87 -153 14 -25 29 -47 33 -50 3 -3 17 -25 29 -50 12 -25 26 -47 30 -50 4 -3
19 -28 34 -57 48 -95 31 -242 -39 -339 -41 -56 -115 -123 -174 -157 -20 -11
-43 -26 -51 -32 -8 -7 -71 -36 -140 -65 -69 -29 -154 -65 -190 -81 -36 -15
-130 -55 -210 -89 -80 -33 -167 -71 -194 -83 -100 -44 -559 -276 -575 -290 -9
-7 -31 -19 -48 -27 -18 -7 -33 -16 -33 -20 0 -4 -13 -13 -28 -19 -15 -6 -41
-23 -56 -36 -16 -14 -32 -25 -36 -25 -3 0 -15 -8 -26 -18 -10 -9 -32 -26 -49
-36 -27 -17 -129 -98 -199 -158 -25 -21 -73 -70 -166 -169 -74 -78 -140 -180
-192 -294 -85 -187 -98 -236 -123 -470 -3 -33 -10 -71 -15 -85 -32 -87 -63
-848 -41 -1015 6 -44 17 -129 25 -190 18 -140 59 -317 96 -420 67 -184 84
-224 147 -344 36 -69 68 -128 72 -131 3 -3 29 -38 56 -79 71 -104 218 -264
304 -331 18 -14 44 -35 57 -48 14 -12 42 -31 62 -42 20 -12 57 -34 82 -50 57
-36 298 -170 306 -170 8 0 161 -67 189 -82 11 -6 54 -24 95 -39 41 -15 111
-42 155 -59 44 -17 116 -42 160 -55 98 -29 198 -62 245 -81 19 -7 69 -21 110
-30 41 -9 86 -22 100 -29 14 -7 57 -18 95 -25 39 -7 86 -19 105 -26 19 -7 76
-20 125 -29 50 -9 106 -22 125 -30 19 -7 73 -19 120 -26 47 -6 103 -17 125
-24 22 -8 108 -23 190 -35 83 -12 164 -25 180 -31 35 -11 322 -46 475 -58 137
-11 1683 -11 1820 0 153 12 440 47 475 58 17 6 98 19 180 31 83 12 168 27 190
35 22 7 78 18 125 24 47 7 101 19 120 26 19 8 76 21 125 30 50 9 106 22 125
29 19 7 67 19 105 26 39 7 81 18 95 25 14 7 59 20 100 29 41 9 91 23 110 30
47 19 147 52 245 81 44 13 116 38 160 55 44 17 114 44 155 59 41 15 84 33 95
39 28 15 181 82 189 82 8 0 249 134 306 170 25 16 62 38 82 50 20 11 48 30 62
42 13 13 39 34 57 48 86 67 233 227 304 331 28 41 53 76 56 79 4 3 36 62 72
131 63 120 80 160 147 344 37 103 78 280 96 420 8 61 19 146 25 190 22 167 -9
928 -41 1015 -5 14 -12 52 -15 85 -16 146 -37 264 -57 315 -76 199 -160 346
-258 449 -93 99 -141 148 -166 169 -70 60 -172 141 -199 158 -16 10 -39 27
-49 36 -11 10 -23 18 -26 18 -4 0 -20 11 -36 25 -15 13 -41 30 -56 36 -15 6
-28 15 -28 19 0 4 -15 13 -32 20 -18 8 -40 20 -49 27 -16 14 -475 246 -575
290 -27 12 -114 50 -194 83 -80 34 -174 74 -210 89 -36 16 -121 52 -190 81
-69 29 -132 58 -140 65 -8 6 -31 21 -51 32 -59 34 -133 101 -174 157 -70 97
-87 244 -39 339 15 29 30 54 34 57 4 3 18 25 30 50 12 25 26 47 29 50 4 3 19
25 33 50 13 25 53 93 87 153 122 214 255 485 307 627 13 36 37 103 55 150 17
47 40 112 50 145 11 33 24 74 30 90 25 70 62 208 84 313 14 62 29 120 34 130
5 9 17 72 26 139 14 100 16 163 11 335 -3 117 -9 241 -14 275 l-8 62 46 6 c25
3 55 8 66 10 33 7 92 72 104 113 17 58 25 361 11 405 -14 42 -58 90 -105 114
-30 16 -129 27 -358 39 -54 3 -98 9 -98 13 0 8 -62 90 -97 129 -13 14 -23 28
-23 32 0 4 -12 21 -27 37 -16 17 -41 47 -58 66 -48 58 -317 328 -376 379 -116
99 -181 152 -259 210 -30 22 -57 43 -60 47 -3 4 -23 18 -45 31 -22 13 -42 27
-45 30 -3 4 -20 15 -37 25 -18 11 -33 22 -33 25 0 4 -22 17 -50 30 -27 13 -50
27 -50 31 0 4 -19 14 -42 24 -24 9 -45 20 -48 24 -8 13 -210 117 -300 156
-177 77 -378 136 -560 166 -63 11 -128 24 -145 30 -38 13 -466 20 -565 9z
m380 -380 c36 -5 119 -16 185 -24 66 -9 136 -22 155 -30 19 -8 70 -22 113 -30
42 -9 90 -22 105 -30 15 -7 42 -17 61 -21 18 -4 48 -15 65 -25 17 -10 42 -21
56 -25 43 -12 318 -157 355 -187 9 -7 64 -44 204 -137 20 -13 50 -35 66 -47
17 -13 41 -32 54 -41 35 -27 129 -105 175 -148 12 -11 42 -36 67 -56 55 -46
180 -171 237 -238 l44 -52 -119 6 c-118 7 -291 18 -518 34 -406 29 -865 22
-949 -14 -17 -8 -53 -22 -80 -31 -27 -10 -63 -30 -80 -46 -17 -15 -33 -28 -37
-28 -3 0 -11 -11 -17 -24 l-11 -24 -178 5 c-161 4 -260 -2 -304 -21 -11 -5
-21 3 -33 26 -23 42 -90 88 -186 127 -110 44 -256 56 -595 46 -148 -4 -326
-11 -395 -16 -69 -5 -181 -13 -250 -18 -69 -5 -190 -12 -269 -16 l-143 -7 43
52 c58 68 183 193 238 239 25 20 55 45 67 56 46 43 140 121 175 148 13 9 38
28 54 41 17 12 46 34 66 47 140 93 195 130 204 137 37 30 312 175 355 187 14
4 39 15 56 25 17 10 47 21 65 25 19 4 46 14 61 21 15 8 63 21 105 30 43 8 94
22 113 30 19 8 89 21 155 30 66 8 145 19 175 23 77 11 213 12 290 1z m-880
-1320 c110 -10 227 -36 243 -52 24 -24 39 -93 34 -149 -34 -334 -64 -489 -118
-604 -12 -27 -36 -79 -53 -115 -17 -36 -33 -67 -37 -70 -3 -3 -13 -18 -22 -35
-29 -58 -85 -136 -139 -197 -16 -17 -28 -34 -28 -39 0 -12 -172 -179 -225
-219 -26 -19 -53 -40 -59 -46 -13 -12 -62 -40 -155 -88 -49 -25 -103 -43 -231
-76 -54 -14 -204 -12 -252 4 -24 8 -59 17 -78 21 -44 9 -198 89 -242 126 -30
25 -56 46 -151 122 -43 35 -97 88 -97 96 0 5 -14 23 -30 42 -54 59 -57 63 -70
89 -7 14 -17 27 -21 30 -13 9 -60 139 -70 195 -10 52 -3 221 11 290 43 197 72
279 172 484 l63 128 195 7 c107 4 353 17 545 27 732 42 695 41 815 29z m1980
-10 c33 -8 135 -14 780 -42 l275 -11 59 -120 c83 -169 123 -268 142 -356 9
-42 20 -83 25 -92 19 -37 31 -245 20 -353 -10 -96 -34 -177 -60 -196 -4 -3
-18 -23 -31 -45 -33 -57 -107 -137 -179 -195 -18 -14 -42 -34 -54 -45 -24 -22
-61 -50 -122 -92 -22 -15 -42 -31 -45 -34 -19 -24 -124 -64 -260 -99 -54 -14
-204 -12 -252 4 -24 8 -59 17 -78 21 -39 8 -192 72 -200 84 -3 5 -21 16 -40
26 -33 17 -51 30 -123 87 -30 24 -216 208 -247 243 -9 11 -28 38 -41 60 -13
22 -29 46 -36 53 -7 7 -13 17 -13 21 0 4 -9 17 -20 29 -24 26 -118 211 -153
302 -30 78 -35 98 -54 215 -49 307 -54 448 -18 485 23 23 128 48 245 60 94 9
433 2 480 -10z m-4000 -88 c0 -4 -5 -13 -11 -19 -6 -6 -16 -27 -23 -46 -16
-46 -32 -36 -41 26 l-7 47 41 0 c22 0 41 -4 41 -8z m5625 -39 c-8 -57 -4 -50
-38 -58 -22 -6 -27 -4 -27 11 0 11 -9 34 -20 52 -11 18 -20 35 -20 37 0 3 25
5 56 5 l56 0 -7 -47z m-2713 -159 l56 -6 8 -76 c31 -333 68 -465 202 -724 35
-66 55 -115 47 -111 -8 3 -15 9 -15 13 0 15 -177 98 -235 110 -75 16 -306 15
-380 0 -72 -15 -204 -80 -268 -133 -26 -22 -51 -37 -54 -33 -4 3 -1 6 5 6 6 0
14 9 17 20 3 11 12 26 19 32 7 7 40 69 75 138 81 164 137 334 156 480 32 239
37 265 48 272 7 4 37 8 67 8 30 0 62 5 70 10 8 6 39 8 70 5 30 -3 81 -8 112
-11z m8 -1101 c41 -14 89 -37 105 -50 17 -13 40 -32 53 -41 21 -15 52 -41 116
-97 12 -11 56 -42 97 -70 41 -27 76 -53 79 -57 3 -4 22 -14 43 -23 20 -8 37
-19 37 -24 0 -5 25 -19 55 -30 31 -12 66 -27 78 -35 20 -13 152 -73 257 -116
84 -34 245 -79 328 -91 113 -17 135 -32 161 -113 23 -72 26 -104 12 -150 -5
-17 -15 -50 -22 -74 -7 -24 -21 -53 -32 -65 -10 -12 -25 -34 -33 -49 -26 -50
-170 -132 -304 -173 -76 -24 -234 -81 -256 -93 -11 -6 -38 -18 -60 -26 -21 -8
-77 -29 -124 -46 -47 -18 -105 -38 -130 -46 -25 -8 -58 -20 -75 -26 -105 -37
-303 -60 -520 -60 -217 0 -415 23 -520 60 -16 6 -50 18 -75 26 -25 8 -83 28
-130 46 -47 17 -102 38 -123 46 -22 8 -55 23 -75 33 -21 10 -53 22 -72 26 -19
4 -58 18 -86 30 -29 13 -67 26 -85 30 -98 21 -278 124 -304 174 -8 16 -21 35
-28 43 -27 27 -59 114 -64 175 -7 76 25 175 64 200 14 9 73 24 131 34 59 10
123 25 142 33 19 8 62 23 95 34 130 43 175 62 319 133 185 92 220 110 226 118
3 3 38 29 79 56 41 28 85 59 97 70 64 56 95 82 116 97 13 9 37 28 53 41 27 22
148 70 200 80 36 6 99 -4 175 -30z m-2480 -340 c32 -27 71 -58 87 -71 15 -13
44 -31 63 -40 19 -9 37 -20 40 -24 11 -15 208 -87 268 -99 52 -10 62 -15 57
-29 -33 -105 -43 -260 -25 -380 10 -61 94 -260 110 -260 4 0 15 -15 25 -34 10
-19 29 -39 42 -45 13 -6 26 -18 29 -26 4 -8 24 -25 45 -37 21 -12 39 -26 39
-30 0 -15 227 -117 345 -156 33 -11 96 -33 140 -50 44 -16 100 -37 125 -46 25
-9 61 -25 80 -35 19 -10 51 -22 70 -26 19 -4 48 -14 64 -22 16 -8 81 -28 145
-45 64 -16 134 -34 156 -40 22 -5 195 -12 385 -15 272 -3 365 -1 440 11 115
17 315 68 358 90 17 9 36 16 43 16 6 0 37 11 68 25 31 13 99 40 151 60 52 19
115 44 140 55 25 11 68 25 95 31 28 6 65 20 83 30 18 11 39 19 46 19 19 0 196
88 196 98 0 4 15 16 33 27 28 17 71 58 138 133 40 45 108 204 120 282 15 100
6 260 -18 332 -22 64 -25 60 47 73 46 9 205 71 250 98 81 48 160 102 160 109
0 4 14 15 31 23 31 16 31 16 24 -7 -4 -13 -15 -39 -25 -58 -9 -19 -20 -48 -24
-65 -15 -67 -253 -586 -289 -630 -4 -5 -29 -46 -54 -90 -25 -44 -60 -105 -79
-135 -18 -30 -45 -77 -60 -105 -15 -27 -30 -52 -35 -55 -20 -13 -80 -168 -90
-233 -12 -77 -6 -262 10 -312 16 -51 70 -174 81 -187 24 -29 60 -85 74 -116
32 -69 152 -167 276 -225 52 -24 131 -61 175 -82 119 -56 147 -68 300 -131 77
-31 203 -85 280 -119 77 -34 169 -75 205 -91 35 -16 110 -53 165 -83 216 -116
297 -162 313 -178 8 -8 28 -21 45 -29 16 -9 35 -20 41 -25 6 -5 40 -30 76 -56
36 -27 72 -53 80 -60 30 -24 226 -220 243 -244 9 -13 28 -37 41 -54 28 -36 86
-145 86 -162 0 -7 9 -39 19 -70 11 -32 27 -107 35 -168 9 -60 20 -137 25 -170
6 -33 18 -157 27 -275 25 -329 8 -801 -34 -930 -7 -19 -20 -69 -31 -110 -10
-41 -26 -102 -36 -135 -20 -72 -155 -351 -190 -391 -14 -16 -25 -32 -25 -36 0
-4 -12 -21 -27 -37 -16 -16 -46 -53 -68 -83 -21 -29 -63 -74 -93 -98 -30 -25
-66 -55 -80 -68 -15 -12 -35 -25 -44 -28 -10 -3 -18 -9 -18 -14 0 -4 -21 -18
-47 -30 -27 -12 -50 -25 -53 -29 -14 -19 -257 -144 -370 -191 -30 -12 -86 -36
-125 -52 -78 -34 -173 -68 -285 -103 -41 -13 -102 -33 -134 -44 -33 -12 -68
-21 -78 -21 -10 0 -31 -6 -46 -14 -15 -7 -58 -21 -97 -30 -38 -10 -88 -24
-110 -31 -22 -8 -67 -19 -100 -25 -33 -6 -78 -18 -100 -26 -22 -8 -87 -23
-145 -33 -58 -10 -115 -23 -125 -28 -11 -6 -60 -16 -110 -23 -49 -7 -98 -17
-108 -22 -9 -5 -93 -20 -185 -34 -92 -14 -210 -32 -262 -40 -174 -27 -352 -36
-672 -35 -401 1 -635 1 -1035 0 -321 -1 -499 8 -673 35 -52 8 -170 26 -262 40
-92 14 -176 29 -185 34 -10 5 -58 15 -108 22 -49 7 -99 17 -110 23 -10 5 -67
18 -125 28 -58 10 -123 25 -145 33 -22 8 -67 20 -100 26 -33 6 -78 17 -100 25
-22 7 -71 21 -110 31 -38 9 -82 23 -97 30 -15 8 -36 14 -46 14 -10 0 -45 9
-78 21 -32 11 -93 31 -134 44 -112 35 -207 69 -285 103 -38 16 -95 40 -125 52
-113 47 -356 172 -370 191 -3 4 -26 17 -52 29 -27 12 -48 26 -48 30 0 5 -8 11
-17 14 -10 3 -30 16 -45 28 -14 13 -50 43 -80 68 -30 24 -72 69 -93 98 -22 30
-52 67 -67 83 -16 16 -28 33 -28 37 0 4 -11 20 -25 36 -35 40 -170 319 -190
391 -10 33 -26 94 -36 135 -11 41 -24 91 -31 110 -42 129 -59 601 -34 930 9
118 21 242 27 275 5 33 16 110 25 170 8 61 24 136 35 168 10 31 19 63 19 70 0
17 58 126 86 162 13 17 32 41 41 54 17 24 213 220 243 244 8 7 44 33 80 60 36
26 70 51 76 56 6 5 25 16 41 25 17 8 37 21 45 29 16 16 97 62 313 178 55 30
130 67 165 83 36 16 128 57 205 91 77 34 203 88 280 119 153 63 181 75 300
131 44 21 123 58 175 82 124 58 244 156 276 225 14 31 50 87 74 116 11 13 65
136 81 187 16 50 22 235 10 312 -10 65 -70 220 -90 233 -5 3 -20 28 -35 55
-15 28 -42 75 -60 105 -19 30 -54 91 -79 135 -25 44 -50 85 -54 90 -36 44
-274 563 -289 630 -4 17 -15 46 -24 65 -20 40 -41 110 -33 110 3 0 31 -21 63
-47z"/>
<path d="M5230 7320 c-8 -5 -26 -10 -38 -10 -40 0 -210 -88 -252 -130 -41 -41
-88 -70 -115 -70 -8 0 -47 -16 -85 -35 -81 -41 -106 -43 -180 -13 -66 26 -225
36 -271 18 -30 -13 -89 -102 -89 -136 0 -11 -12 -37 -25 -59 -22 -35 -25 -52
-25 -128 0 -49 5 -98 11 -109 17 -32 60 -68 88 -74 14 -3 51 -16 81 -27 51
-20 77 -22 331 -25 l275 -3 81 55 c45 30 96 57 115 61 43 10 96 37 133 69 17
14 33 26 37 26 4 0 13 6 20 13 59 58 96 60 146 8 20 -21 51 -45 67 -54 17 -8
40 -27 52 -41 12 -14 34 -28 48 -32 14 -3 25 -10 25 -15 0 -14 129 -71 225
-98 49 -15 454 -9 530 7 28 5 88 24 135 41 47 17 86 31 87 31 1 0 9 13 18 30
9 17 15 56 15 96 0 76 -6 99 -69 264 -31 79 -79 110 -173 110 -53 0 -80 -6
-118 -25 -44 -23 -61 -25 -168 -25 l-119 0 -29 34 c-16 18 -44 41 -62 50 -18
9 -51 35 -72 56 -38 38 -159 103 -250 134 -52 18 -354 23 -380 6z"/>
</g>
</svg>
